<svg width="388" height="342" viewBox="0 0 388 342" fill="none" xmlns="http://www.w3.org/2000/svg">
<path d="M193.89 341.99C300.972 341.99 387.78 336.922 387.78 330.67C387.78 324.418 300.972 319.35 193.89 319.35C86.8075 319.35 0 324.418 0 330.67C0 336.922 86.8075 341.99 193.89 341.99Z" fill="#F5F5F5"/>
<path d="M30.6101 35.08C29.6101 30.67 30.0501 26.97 31.9501 23.95C33.8501 20.93 36.9501 18.95 41.3601 17.95C45.7701 16.95 49.5801 17.35 52.5601 19.21C55.5401 21.07 57.5601 24.21 58.5601 28.51C59.2661 31.164 59.3244 33.9488 58.7301 36.63C58.1487 38.8568 56.9203 40.8612 55.2001 42.39C53.1569 44.1102 50.7046 45.2743 48.0801 45.77C45.5074 46.4531 42.8135 46.5454 40.2001 46.04C37.9284 45.4879 35.8737 44.269 34.3001 42.54C32.4201 40.4314 31.1452 37.8538 30.6101 35.08ZM38.9501 33.22C39.5701 35.94 40.5201 37.78 41.8001 38.74C42.4608 39.1806 43.2038 39.483 43.9844 39.629C44.765 39.7751 45.5671 39.7618 46.3424 39.5899C47.1178 39.418 47.8503 39.0911 48.4961 38.6289C49.1418 38.1666 49.6874 37.5785 50.1001 36.9C50.8201 35.51 50.8301 33.3 50.1501 30.29C49.5701 27.75 48.6334 26.01 47.3401 25.07C46.6889 24.6026 45.9413 24.2873 45.1521 24.1471C44.3629 24.0069 43.5524 24.0455 42.7801 24.26C42.0071 24.4048 41.2771 24.723 40.6449 25.1906C40.0126 25.6583 39.4947 26.2633 39.1301 26.96C38.3901 28.43 38.3201 30.43 38.9501 33.22Z" fill="#263238"/>
<path d="M62.4801 31.78C62.1248 30.4172 62.0615 28.9947 62.2941 27.6058C62.5268 26.2168 63.0502 24.8926 63.8301 23.72C64.7044 22.4741 65.8161 21.4132 67.1014 20.5981C68.3867 19.7829 69.8204 19.2297 71.3201 18.97C75.2334 18.0833 78.4467 18.5466 80.9601 20.36C83.0752 21.9996 84.5132 24.3602 85.0001 26.9918C85.4869 29.6234 84.9886 32.3421 83.6001 34.63C82.0401 37.01 79.5001 38.5966 75.9801 39.39C73.2682 40.1481 70.3748 39.9141 67.8201 38.73C66.4539 38.0623 65.2609 37.0874 64.3345 35.8816C63.408 34.6759 62.7733 33.272 62.4801 31.78ZM69.9901 30.05C70.1924 31.4474 70.8747 32.7308 71.9201 33.68C72.3344 33.9936 72.8121 34.2132 73.3199 34.3237C73.8277 34.4341 74.3535 34.4326 74.8607 34.3194C75.3678 34.2061 75.8443 33.9838 76.2569 33.6679C76.6695 33.352 77.0084 32.95 77.2501 32.49C77.7736 31.1468 77.823 29.6651 77.3901 28.29C77.1797 26.9254 76.5051 25.675 75.4801 24.75C75.0823 24.4275 74.6155 24.2011 74.116 24.0883C73.6165 23.9756 73.0978 23.9796 72.6001 24.1C72.0812 24.2075 71.5936 24.4318 71.1743 24.7558C70.755 25.0798 70.415 25.495 70.1801 25.97C69.6415 27.2659 69.5743 28.7096 69.9901 30.05Z" fill="#263238"/>
<path d="M92.4701 43.0002L86.3401 16.0001L93.3401 14.4001L94.0001 17.2901C94.4939 16.1376 95.211 15.0942 96.1101 14.2201C97.0967 13.3827 98.2749 12.8022 99.5401 12.5301C100.709 12.2121 101.94 12.1939 103.118 12.477C104.296 12.7601 105.383 13.3356 106.28 14.1501C108.257 15.9977 109.597 18.4237 110.11 21.0801C110.85 24.3301 110.63 26.9901 109.47 29.0801C108.918 30.0794 108.156 30.9467 107.236 31.6219C106.315 32.2971 105.259 32.7639 104.14 32.9901C103.062 33.2457 101.945 33.2899 100.85 33.1201C99.8001 32.9362 98.7993 32.5379 97.9101 31.9501L100.03 41.2801L92.4701 43.0002ZM96.0801 24.1401C96.2638 25.3891 96.888 26.5312 97.8401 27.3601C98.2219 27.6525 98.6649 27.8547 99.136 27.9517C99.607 28.0486 100.094 28.0379 100.56 27.9201C100.993 27.8333 101.4 27.646 101.747 27.3733C102.094 27.1006 102.373 26.7502 102.56 26.3501C102.985 25.0986 102.985 23.7417 102.56 22.4901C102.377 21.2349 101.775 20.0787 100.85 19.2101C100.507 18.9253 100.103 18.7231 99.67 18.6191C99.2365 18.5151 98.7849 18.512 98.3501 18.6101C97.8906 18.7093 97.4595 18.911 97.089 19.2002C96.7184 19.4894 96.418 19.8586 96.2101 20.2801C95.7206 21.5128 95.6746 22.8773 96.0801 24.1401Z" fill="#263238"/>
<path d="M113.32 24.7299L120.6 22.3399C120.987 23.0436 121.59 23.6045 122.32 23.9399C123.106 24.1673 123.937 24.1855 124.731 23.9925C125.526 23.7996 126.256 23.4022 126.85 22.8399C127.016 22.6634 127.136 22.4491 127.201 22.2157C127.265 21.9822 127.272 21.7365 127.22 21.4999C127.16 21.2291 127.02 20.9826 126.819 20.7919C126.617 20.6012 126.364 20.4751 126.09 20.4299C124.96 20.3058 123.82 20.3058 122.69 20.4299C120.794 20.5912 118.887 20.5912 116.99 20.4299C115.88 20.2687 114.839 19.7934 113.99 19.0599C113.085 18.2761 112.459 17.2187 112.208 16.0476C111.957 14.8766 112.095 13.6557 112.6 12.5699C113.183 11.4079 114.09 10.4391 115.21 9.77985C116.805 8.87365 118.538 8.23518 120.34 7.88985C122.06 7.42304 123.838 7.20748 125.62 7.24985C126.739 7.32189 127.823 7.66509 128.78 8.24985C129.799 8.93748 130.664 9.82974 131.32 10.8699L124.32 13.1799C124.058 12.6588 123.624 12.2452 123.09 12.0099C122.361 11.7489 121.57 11.7141 120.82 11.9099C120.158 12.0022 119.543 12.3076 119.07 12.7799C118.92 12.9408 118.811 13.1362 118.753 13.3489C118.696 13.5615 118.691 13.785 118.74 13.9999C118.794 14.2363 118.919 14.4508 119.097 14.615C119.276 14.7793 119.5 14.8855 119.74 14.9199C120.858 15.0496 121.988 15.0261 123.1 14.8499C125.028 14.5704 126.985 14.5435 128.92 14.7699C130.137 14.9418 131.278 15.4668 132.2 16.2799C133.034 17.036 133.614 18.0314 133.86 19.1299C134.116 20.3077 134.022 21.5347 133.59 22.6599C133.061 23.9919 132.141 25.1322 130.95 25.9299C129.196 27.0765 127.231 27.8618 125.17 28.2399C121.603 29.0532 118.937 29.1232 117.17 28.4499C115.449 27.7625 114.066 26.4266 113.32 24.7299Z" fill="#263238"/>
<path d="M137.74 0H145.95V6.3L144.44 18.97H139.36L137.74 6.32V0ZM138.14 20.88H145.8V27.66H138.14V20.88Z" fill="#263238"/>
<path d="M72.57 86.0105H72.39C67.89 84.2605 65.2 82.5605 63.8 80.5105C62.7041 80.7182 61.5704 80.5638 60.57 80.0705C59.3981 79.497 58.426 78.5841 57.78 77.4506C57.4405 77.7111 57.0406 77.8817 56.6175 77.9463C56.1945 78.011 55.7619 77.9678 55.36 77.8205C54.1276 77.3594 53.0759 76.5146 52.36 75.4105C51.9122 75.7441 51.3555 75.8976 50.8 75.8406C47.8 75.6006 43.8 69.6805 43.51 63.3805C43.5071 63.2476 43.5552 63.1185 43.6445 63.0199C43.7337 62.9214 43.8574 62.8607 43.99 62.8505C44.0557 62.8479 44.1212 62.8582 44.1829 62.8808C44.2446 62.9035 44.3012 62.9382 44.3495 62.9827C44.3978 63.0273 44.4369 63.081 44.4644 63.1407C44.4919 63.2003 44.5074 63.2649 44.51 63.3305C44.79 69.3305 48.62 74.6606 50.89 74.8406C51.0552 74.8591 51.2224 74.8448 51.382 74.7985C51.5416 74.7521 51.6905 74.6747 51.82 74.5705C51.0379 73.1448 50.5468 71.5779 50.3751 69.9609C50.2035 68.3438 50.3547 66.7087 50.82 65.1505C51.68 62.1505 52.44 60.9705 53.36 61.1505C55.08 61.5805 54.85 68.1505 53.94 72.4405C53.8021 73.2143 53.517 73.9543 53.1 74.6206C53.6895 75.6091 54.5795 76.3834 55.64 76.8305C55.9227 76.9382 56.2303 76.9624 56.5263 76.9004C56.8223 76.8383 57.0943 76.6926 57.31 76.4806C56.53 74.5506 56.31 71.9105 57.43 68.5505C58.83 64.1205 59.43 64.0006 59.74 63.9206C59.8566 63.896 59.9777 63.9035 60.0904 63.9423C60.203 63.981 60.3031 64.0495 60.38 64.1406C61.31 65.1906 60.2 72.0705 59.04 75.4705C58.9041 75.8797 58.7159 76.2696 58.48 76.6305C59.0166 77.7121 59.8906 78.5897 60.97 79.1305C61.678 79.4748 62.4653 79.6233 63.25 79.5606C63.16 79.3706 63.08 79.1806 63 78.9806C62.21 76.8306 62.6 74.3605 64.19 71.4005C65.24 69.4505 66.1 68.5306 66.9 68.5306C67.1124 68.5334 67.3195 68.5971 67.4967 68.714C67.674 68.831 67.8139 68.9964 67.9 69.1905C68.77 70.8005 68.14 76.1106 66.42 78.7506C66.0173 79.3558 65.4572 79.8398 64.8 80.1505C66.14 81.9105 68.69 83.4605 72.8 85.0405C72.8616 85.0628 72.9182 85.0971 72.9663 85.1415C73.0144 85.186 73.0532 85.2396 73.0802 85.2993C73.1072 85.359 73.122 85.4234 73.1237 85.4889C73.1254 85.5544 73.1139 85.6196 73.09 85.6805C73.0512 85.7847 72.9793 85.8733 72.8855 85.9329C72.7916 85.9925 72.6808 86.0197 72.57 86.0105ZM66.89 69.5405C66.89 69.5405 66.32 69.5406 65.06 71.8906C63.61 74.5706 63.24 76.7806 63.93 78.6406C64.0137 78.8709 64.1139 79.0948 64.23 79.3106C64.7717 79.0867 65.2322 78.703 65.55 78.2105C66.95 76.0705 67.62 71.6706 67.1 69.9506C67.03 69.6006 66.89 69.5405 66.89 69.5405ZM59.71 65.3305C59.1687 66.4691 58.7206 67.6496 58.37 68.8605C57.6031 70.9592 57.4709 73.2373 57.99 75.4105L58.08 75.1505C59.1301 71.9808 59.6899 68.6693 59.74 65.3305H59.71ZM53.13 62.1805C52.96 62.3305 52.47 62.9605 51.78 65.4005C50.9639 68.1389 51.2214 71.0852 52.5 73.6406C52.7052 73.1935 52.8563 72.7235 52.95 72.2405C54.02 67.3305 53.72 62.8905 53.16 62.1805H53.13Z" fill="#263238"/>
<path d="M110.59 138.43C108.991 138.446 107.417 138.035 106.03 137.24C105.916 137.172 105.833 137.061 105.799 136.932C105.766 136.803 105.784 136.666 105.85 136.55C105.883 136.494 105.927 136.445 105.979 136.405C106.031 136.366 106.091 136.338 106.154 136.322C106.218 136.306 106.283 136.303 106.348 136.313C106.412 136.323 106.474 136.346 106.53 136.38C110.1 138.47 114.71 137.01 115.66 135.48C115.729 135.384 115.777 135.276 115.803 135.16C115.829 135.045 115.831 134.926 115.81 134.81C113.984 134.915 112.177 134.401 110.68 133.35C108.13 131.76 107.93 131.28 107.95 130.9C107.955 130.791 107.989 130.685 108.049 130.594C108.109 130.502 108.192 130.429 108.29 130.38C109.29 129.88 113.8 131.95 115.68 133.19C115.905 133.34 116.113 133.514 116.3 133.71C117.039 133.543 117.705 133.143 118.2 132.57C118.479 132.243 118.681 131.856 118.79 131.44H118.59C116.99 131.6 115.39 130.91 113.68 129.33C112.5 128.25 112.05 127.5 112.2 126.91C112.245 126.744 112.337 126.595 112.465 126.48C112.593 126.365 112.75 126.289 112.92 126.26C114.3 125.91 117.72 127.37 119.11 128.9C119.42 129.233 119.64 129.639 119.75 130.08C121.06 129.47 122.44 128.08 124.07 125.81C124.108 125.756 124.156 125.71 124.212 125.675C124.268 125.639 124.33 125.616 124.395 125.604C124.46 125.593 124.527 125.595 124.591 125.61C124.655 125.625 124.716 125.652 124.77 125.69C124.877 125.768 124.949 125.885 124.972 126.016C124.994 126.147 124.965 126.281 124.89 126.39C123 129.03 121.42 130.53 119.84 131.14C119.758 131.879 119.455 132.576 118.97 133.14C118.394 133.81 117.637 134.299 116.79 134.55C116.838 134.789 116.837 135.035 116.789 135.273C116.741 135.512 116.646 135.739 116.51 135.94C115.67 137.37 113.25 138.43 110.59 138.43ZM109.7 131.49C110.04 131.74 110.52 132.07 111.21 132.49C112.285 133.216 113.521 133.669 114.81 133.81C113.2 132.845 111.486 132.067 109.7 131.49ZM113.19 127.24C113.477 127.781 113.876 128.255 114.36 128.63C115.84 130 117.19 130.63 118.49 130.47H118.81C118.739 130.16 118.587 129.873 118.37 129.64C116.97 128.06 113.89 127.08 113.19 127.24Z" fill="#263238"/>
<path d="M123.83 137.06L108.25 139.89L94.1 62.6704L64.04 68.1304L15.04 155.13L20.3 183.84L83.15 172.43L87.45 195.91L117.51 190.43L113.21 166.95L128.79 164.12L123.83 137.06ZM44.98 151.43L70.98 105.86L78.23 145.4L44.98 151.43Z" fill="#0AA547"/>
<path d="M249.32 57.4304C248.847 52.576 247.772 47.7994 246.12 43.2104C244.421 38.8145 242.06 34.7038 239.12 31.0204C235.64 26.735 231.317 23.209 226.42 20.6604C221.087 17.7337 214.013 15.697 205.2 14.5504C186.9 12.1637 172.64 15.4104 162.42 24.2904C152.2 33.1704 145.467 50.1704 142.22 75.2904C140.924 84.6784 140.589 94.1743 141.22 103.63C141.887 112.297 143.48 119.274 146 124.56C149.207 131.69 154.266 137.829 160.65 142.34C166.963 146.774 175.63 149.704 186.65 151.13C206.237 153.684 220.76 149.92 230.22 139.84C239.68 129.76 245.947 112.727 249.02 88.7404C250.386 78.3543 250.487 67.8407 249.32 57.4304Z" fill="#0AA547"/>
<path d="M195.66 140.86C193.25 140.78 190.66 140.56 188.05 140.22C178.89 139.03 171.81 136.71 166.99 133.33C162.183 129.936 158.383 125.306 155.99 119.93L155.94 119.82C154.02 115.82 152.76 110.07 152.21 102.82C151.627 94.1117 151.936 85.3663 153.13 76.7203C156.7 49.0003 164.07 37.4303 169.62 32.6103C176.1 26.9903 184.85 24.4503 196.35 24.8503C198.71 24.9303 201.21 25.1403 203.78 25.4703C211.16 26.4703 217.01 28.0703 221.15 30.3303C224.727 32.1726 227.894 34.7205 230.46 37.8203C232.705 40.62 234.509 43.746 235.81 47.0903C237.139 50.8194 237.998 54.6992 238.37 58.6404C239.436 68.1901 239.339 77.8341 238.08 87.3603C235.31 108.9 229.95 124.04 222.16 132.36C216.38 138.52 207.71 141.36 195.65 140.9L195.66 140.86Z" fill="#263238"/>
<path d="M215.23 57.7205L215.36 53.9305L213.03 53.1705C212.931 51.8886 212.723 50.6174 212.41 49.3705L214.41 47.9105L213.07 44.3505L210.63 44.5505C210.056 43.4063 209.387 42.3125 208.63 41.2805L209.89 39.1705L207.29 36.4005L205.11 37.5205C204.135 36.6818 203.091 35.9259 201.99 35.2605L202.34 32.8405L198.88 31.2705L197.3 33.1305C196.076 32.734 194.822 32.4396 193.55 32.2505L192.96 29.8805L189.16 29.7505L188.41 32.0705C187.129 32.173 185.858 32.3804 184.61 32.6905L183.14 30.6905L179.58 32.0205L179.78 34.4605C178.636 35.0348 177.542 35.7038 176.51 36.4605L174.41 35.1905L171.63 37.7805L172.75 39.9705C171.909 40.9453 171.156 41.9927 170.5 43.1005L168.08 42.7305L166.5 46.1905L168.37 47.7705C167.964 48.9948 167.67 50.2532 167.49 51.5305L165.11 52.1305L164.98 55.9105L167.31 56.6705C167.408 57.9559 167.615 59.2305 167.93 60.4805L165.93 61.9305L167.27 65.4905L169.71 65.2905C170.278 66.4378 170.947 67.5322 171.71 68.5605L170.44 70.6705L173.04 73.4405L175.22 72.3305C176.196 73.1659 177.239 73.9185 178.34 74.5805L177.98 77.0005L181.44 78.5705L183.03 76.7205C184.257 77.1148 185.515 77.4058 186.79 77.5905L187.38 79.9705L191.17 80.1005L191.92 77.7705C193.205 77.6729 194.48 77.4654 195.73 77.1505L197.18 79.1505L200.74 77.8205L200.55 75.3905C201.69 74.8089 202.783 74.1402 203.82 73.3905L205.92 74.6505L208.7 72.0605L207.59 69.8705C208.428 68.899 209.177 67.8549 209.83 66.7505L212.25 67.1105L213.83 63.6505L211.97 62.0705C212.368 60.848 212.659 59.5933 212.84 58.3205L215.23 57.7205ZM189.63 69.9905C186.668 69.8823 183.805 68.899 181.401 67.1649C178.998 65.4308 177.162 63.0234 176.125 60.2468C175.088 57.4701 174.898 54.4486 175.577 51.5636C176.256 48.6786 177.774 46.0595 179.941 44.0368C182.107 42.014 184.824 40.6784 187.749 40.1985C190.673 39.7185 193.675 40.1158 196.374 41.3401C199.073 42.5644 201.349 44.5608 202.914 47.0775C204.48 49.5941 205.265 52.5182 205.17 55.4805C205.107 57.455 204.654 59.3976 203.838 61.1967C203.022 62.9958 201.859 64.616 200.415 65.9642C198.971 67.3124 197.275 68.3622 195.424 69.0531C193.573 69.7441 191.604 70.0626 189.63 69.9905Z" fill="#0AA547"/>
<path opacity="0.3" d="M231.01 127.3L231.29 124.74L229.75 124.12C229.748 123.249 229.674 122.38 229.53 121.52L230.92 120.63L230.21 118.16H228.55C228.222 117.357 227.824 116.584 227.36 115.85L228.3 114.49L226.7 112.49L225.17 113.13C224.55 112.517 223.881 111.955 223.17 111.45L223.54 109.83L221.29 108.59L220.11 109.78C219.306 109.45 218.477 109.185 217.63 108.99L217.35 107.36L214.8 107.07L214.17 108.61C213.301 108.614 212.435 108.695 211.58 108.85L210.69 107.43L208.22 108.16V109.82C207.416 110.152 206.644 110.554 205.91 111.02L204.55 110.02L202.55 111.62L203.19 113.15C202.58 113.771 202.022 114.44 201.52 115.15L199.9 114.79L198.67 117.04L199.85 118.21C199.515 119.016 199.25 119.849 199.06 120.7L197.42 120.97L197.15 123.52L198.68 124.16C198.681 125.025 198.758 125.889 198.91 126.74L197.5 127.63L198.22 130.1H199.89C200.224 130.9 200.625 131.669 201.09 132.4L200.09 133.76L201.69 135.76L203.24 135.11C203.855 135.726 204.525 136.285 205.24 136.78L204.89 138.43L207.14 139.66L208.31 138.49C209.115 138.813 209.944 139.071 210.79 139.26L211.08 140.9L213.63 141.18L214.25 139.65C215.135 139.649 216.018 139.576 216.89 139.43L217.78 140.84L220.24 140.12V138.46C221.044 138.122 221.82 137.721 222.56 137.26L223.9 138.26L225.9 136.65L225.25 135.12C225.866 134.5 226.431 133.831 226.94 133.12L228.55 133.48L229.79 131.23L228.61 130.07C228.932 129.265 229.189 128.436 229.38 127.59L231.01 127.3ZM218.14 126.3C217.717 127.075 217.074 127.706 216.292 128.114C215.51 128.523 214.624 128.69 213.747 128.596C212.869 128.501 212.04 128.148 211.364 127.581C210.687 127.015 210.194 126.261 209.946 125.414C209.698 124.567 209.707 123.666 209.972 122.824C210.236 121.982 210.745 121.238 211.432 120.685C212.12 120.132 212.956 119.796 213.835 119.719C214.714 119.641 215.596 119.826 216.37 120.25C217.405 120.82 218.171 121.777 218.503 122.91C218.835 124.044 218.704 125.263 218.14 126.3Z" fill="#0AA547"/>
<path d="M245.18 84.0804L242.18 82.0204C241.885 80.9495 241.483 79.9109 240.98 78.9204L241.74 75.9204L237.42 71.2904L234.42 71.8504C233.468 71.2838 232.464 70.8115 231.42 70.4404L229.57 67.3204L223.24 67.1104L221.18 70.1104C220.108 70.4011 219.069 70.8033 218.08 71.3104L215.08 70.5404L210.45 74.8704L211.01 77.8704C210.435 78.8177 209.963 79.8234 209.6 80.8704L206.49 82.7204L206.27 89.0504L209.27 91.1104C209.561 92.1891 209.963 93.2348 210.47 94.2304L209.71 97.2304L214.03 101.86L217.03 101.31C217.982 101.876 218.987 102.348 220.03 102.72L221.87 105.83L228.21 106.05L230.26 103.05C231.341 102.757 232.39 102.355 233.39 101.85L236.39 102.61L241.02 98.2904L240.47 95.2904C241.038 94.3396 241.511 93.3346 241.88 92.2904L244.99 90.4404L245.18 84.0804ZM225.45 93.7004C224.043 93.6521 222.681 93.1875 221.538 92.3653C220.394 91.5432 219.52 90.4005 219.026 89.0816C218.533 87.7628 218.441 86.3272 218.763 84.9562C219.085 83.5853 219.806 82.3406 220.836 81.3797C221.865 80.4187 223.157 79.7847 224.547 79.5577C225.936 79.3307 227.362 79.5209 228.644 80.1044C229.926 80.6878 231.006 81.6382 231.747 82.8355C232.489 84.0327 232.859 85.4229 232.81 86.8304C232.742 88.7164 231.929 90.4986 230.55 91.7864C229.17 93.0742 227.336 93.7625 225.45 93.7004Z" fill="white"/>
<path d="M266.89 33.5505L267.41 32.3005C267.764 32.1013 268.098 31.8703 268.41 31.6105H269.57L270.93 29.6105L270.49 28.5405C270.659 28.1841 270.792 27.8124 270.89 27.4305L271.89 26.5105L271.47 24.1605L270.21 23.6405C270.013 23.2859 269.782 22.951 269.52 22.6405V21.4805L267.57 20.1205L266.49 20.5705C266.095 20.4315 265.686 20.3376 265.27 20.2905L264.35 19.2905L262.01 19.7105L261.48 20.9705C261.109 21.1629 260.757 21.3906 260.43 21.6505H259.28L257.92 23.6505L258.36 24.7205C258.226 25.1167 258.132 25.5254 258.08 25.9405L257.08 26.8705L257.5 29.2105L258.76 29.7305C258.951 30.0869 259.179 30.4221 259.44 30.7305V31.8805L261.44 33.2405L262.51 32.8005C262.91 32.9306 263.322 33.021 263.74 33.0705L264.66 34.0705L266.89 33.5505ZM261.89 27.0705C261.796 26.5488 261.858 26.0107 262.069 25.5243C262.281 25.038 262.631 24.6253 263.077 24.3385C263.523 24.0517 264.045 23.9036 264.575 23.913C265.105 23.9224 265.62 24.0889 266.056 24.3914C266.491 24.6939 266.827 25.1188 267.021 25.6123C267.215 26.1058 267.259 26.6458 267.146 27.1639C267.032 27.682 266.768 28.1549 266.386 28.5228C266.004 28.8906 265.522 29.1369 265 29.2305C264.302 29.3531 263.583 29.1949 263.001 28.7904C262.418 28.3859 262.019 27.7678 261.89 27.0705Z" fill="#0AA547"/>
<path d="M239.5 26.9205L238.73 26.2705C240.38 24.2239 242.419 22.5245 244.73 21.2705L245.2 22.1505C243.003 23.3469 241.065 24.9683 239.5 26.9205Z" fill="#0AA547"/>
<path d="M247.48 21.2306L247.09 20.3106C250.783 18.7058 254.821 18.0592 258.83 18.4306L258.73 19.4306C254.888 19.0685 251.017 19.6878 247.48 21.2306Z" fill="#0AA547"/>
<path d="M245.59 28.1502L244.77 27.5902C247.179 24.3368 250.686 22.0667 254.64 21.2002L254.83 22.2002C251.134 23.0072 247.854 25.1198 245.59 28.1502Z" fill="#0AA547"/>
<path d="M179.23 124.431C179.094 124.427 178.964 124.369 178.87 124.271L176.78 122.111C175.715 122.014 174.66 121.82 173.63 121.531L170.36 122.971C170.288 123.01 170.207 123.031 170.125 123.031C170.043 123.031 169.962 123.01 169.89 122.971L164.41 119.341C164.339 119.294 164.282 119.23 164.243 119.155C164.205 119.079 164.187 118.995 164.19 118.911V115.351C163.521 114.514 162.932 113.617 162.43 112.671L159.62 111.591C159.541 111.56 159.472 111.51 159.417 111.445C159.363 111.381 159.326 111.303 159.31 111.221L158.01 104.781C157.993 104.698 157.997 104.613 158.021 104.533C158.046 104.452 158.09 104.379 158.15 104.321L160.31 102.231C160.413 101.166 160.607 100.112 160.89 99.0806L159.45 95.8106C159.411 95.7385 159.39 95.6577 159.39 95.5756C159.39 95.4934 159.411 95.4126 159.45 95.3406L163.08 89.8605C163.125 89.7884 163.189 89.7298 163.265 89.6911C163.34 89.6524 163.425 89.6349 163.51 89.6406L167.07 89.6906C167.904 89.0184 168.802 88.4289 169.75 87.9306L170.84 85.1206C170.869 85.0426 170.917 84.9732 170.98 84.919C171.043 84.8648 171.119 84.8275 171.2 84.8106L177.64 83.5106C177.722 83.4924 177.808 83.4957 177.888 83.5202C177.969 83.5448 178.042 83.5897 178.1 83.6506L180.19 85.8106C181.259 85.908 182.316 86.1022 183.35 86.3906L186.61 84.9506C186.684 84.9112 186.766 84.8906 186.85 84.8906C186.934 84.8906 187.016 84.9112 187.09 84.9506L192.56 88.5806C192.629 88.6292 192.686 88.6934 192.726 88.7681C192.766 88.8428 192.788 88.9259 192.79 89.0106L192.73 92.5706C193.402 93.4069 193.995 94.3042 194.5 95.2506L197.3 96.3406C197.378 96.3694 197.447 96.4175 197.502 96.4805C197.556 96.5434 197.593 96.6192 197.61 96.7006L198.92 103.141C198.936 103.223 198.931 103.308 198.906 103.388C198.882 103.468 198.839 103.541 198.78 103.601L196.61 105.701C196.51 106.762 196.316 107.813 196.03 108.841L197.47 112.111C197.509 112.184 197.53 112.267 197.53 112.351C197.53 112.434 197.509 112.517 197.47 112.591L193.89 118.021C193.843 118.088 193.78 118.144 193.707 118.182C193.634 118.221 193.553 118.241 193.47 118.241L189.9 118.191C189.063 118.854 188.17 119.443 187.23 119.951L186.14 122.761C186.11 122.84 186.061 122.91 185.996 122.964C185.931 123.019 185.853 123.055 185.77 123.071L179.33 124.431H179.23ZM173.6 120.431C173.646 120.421 173.694 120.421 173.74 120.431C174.82 120.745 175.929 120.949 177.05 121.041C177.17 121.055 177.282 121.107 177.37 121.191L179.37 123.291L185.27 122.101L186.33 119.361C186.379 119.25 186.464 119.158 186.57 119.101C187.569 118.584 188.511 117.964 189.38 117.251C189.472 117.173 189.59 117.134 189.71 117.141L193.18 117.191L196.5 112.191L195.1 109.011C195.06 108.901 195.06 108.78 195.1 108.671C195.409 107.589 195.614 106.481 195.71 105.361C195.72 105.239 195.774 105.126 195.86 105.041L197.96 103.041L196.77 97.1406L194.04 96.0806C193.923 96.0379 193.826 95.952 193.77 95.8406C193.251 94.8431 192.631 93.9015 191.92 93.0306C191.849 92.9391 191.81 92.8265 191.81 92.7106V89.2306L186.81 85.9106L183.64 87.3106C183.527 87.351 183.403 87.351 183.29 87.3106C182.206 86.9976 181.094 86.7932 179.97 86.7006C179.85 86.6864 179.738 86.6338 179.65 86.5506L177.65 84.4506L171.75 85.6506L170.7 88.4306C170.658 88.5452 170.577 88.641 170.47 88.7006C169.467 89.2158 168.522 89.8359 167.65 90.5506C167.607 90.5896 167.556 90.6194 167.501 90.6384C167.446 90.6573 167.388 90.6648 167.33 90.6606L163.86 90.6105L160.53 95.6105L161.93 98.7906C161.962 98.8577 161.979 98.9312 161.979 99.0056C161.979 99.0799 161.962 99.1534 161.93 99.2206C161.634 100.276 161.44 101.358 161.35 102.451C161.341 102.572 161.287 102.686 161.2 102.771L159.1 104.771L160.3 110.671L163.02 111.731C163.142 111.781 163.241 111.873 163.3 111.991C163.816 112.981 164.432 113.916 165.14 114.781C165.214 114.87 165.253 114.984 165.25 115.101V118.581L170.25 121.901L173.43 120.501C173.482 120.467 173.54 120.444 173.6 120.431ZM178.51 117.191C176.103 117.188 173.742 116.534 171.677 115.297C169.612 114.06 167.921 112.287 166.783 110.166C165.646 108.044 165.104 105.655 165.216 103.25C165.329 100.846 166.09 98.5167 167.42 96.5106C168.692 94.5859 170.442 93.0244 172.498 91.9786C174.555 90.9329 176.848 90.4388 179.152 90.5446C181.457 90.6505 183.695 91.3526 185.646 92.5825C187.598 93.8123 189.198 95.5277 190.288 97.5608C191.378 99.594 191.922 101.875 191.867 104.182C191.811 106.488 191.158 108.741 189.971 110.719C188.784 112.697 187.104 114.333 185.095 115.468C183.086 116.602 180.817 117.196 178.51 117.191ZM168.26 97.0606C166.914 99.0914 166.2 101.476 166.209 103.912C166.218 106.349 166.95 108.728 168.311 110.749C169.672 112.769 171.601 114.341 173.855 115.266C176.11 116.19 178.587 116.425 180.975 115.942C183.363 115.458 185.554 114.277 187.271 112.548C188.988 110.819 190.154 108.62 190.621 106.229C191.088 103.838 190.836 101.362 189.896 99.114C188.956 96.8661 187.37 94.9475 185.34 93.6006C183.994 92.6994 182.482 92.0738 180.893 91.7598C179.303 91.4459 177.667 91.4499 176.079 91.7716C174.491 92.0933 172.983 92.7263 171.641 93.6341C170.299 94.5418 169.15 95.7064 168.26 97.0606Z" fill="white"/>
<path d="M369.72 146.08L354.02 143.96L364.4 66.1503L334.12 62.0703L260.67 129.69L256.81 158.62L320.1 167.16L316.94 190.83L347.22 194.91L350.38 171.25L366.08 173.37L369.72 146.08ZM290.3 135.36L329.06 100.03L323.74 139.87L290.3 135.36Z" fill="#0AA547"/>
<path d="M338.02 194.171H337.89C337.76 194.146 337.645 194.072 337.571 193.963C337.496 193.854 337.467 193.72 337.49 193.591L360.89 65.6506C360.917 65.5221 360.992 65.4088 361.1 65.3343C361.208 65.2598 361.34 65.2298 361.47 65.2506C361.6 65.2749 361.715 65.3495 361.79 65.4581C361.865 65.5668 361.893 65.7006 361.87 65.8305L338.52 193.761C338.497 193.876 338.435 193.98 338.343 194.055C338.252 194.13 338.138 194.171 338.02 194.171Z" fill="#263238"/>
<path d="M358.72 67.8002C358.712 68.0177 358.618 68.2231 358.459 68.3713C358.299 68.5194 358.088 68.5982 357.87 68.5903C357.653 68.5823 357.447 68.4883 357.299 68.3289C357.151 68.1695 357.072 67.9577 357.08 67.7402C357.088 67.5228 357.182 67.3174 357.341 67.1692C357.501 67.0211 357.713 66.9423 357.93 66.9503C358.148 66.9582 358.353 67.0522 358.501 67.2116C358.649 67.371 358.728 67.5828 358.72 67.8002Z" fill="#263238"/>
<path d="M355.39 85.1005C355.384 85.2625 355.33 85.4191 355.235 85.5505C355.14 85.6819 355.008 85.7822 354.856 85.8386C354.704 85.8951 354.539 85.9053 354.381 85.8678C354.223 85.8304 354.08 85.747 353.97 85.6282C353.86 85.5095 353.787 85.3607 353.761 85.2006C353.735 85.0405 353.757 84.8764 353.825 84.729C353.892 84.5815 354.002 84.4574 354.14 84.3722C354.278 84.287 354.438 84.2447 354.6 84.2505C354.708 84.2544 354.814 84.2795 354.912 84.3243C355.01 84.3691 355.098 84.4328 355.171 84.5118C355.245 84.5907 355.302 84.6833 355.339 84.7844C355.377 84.8854 355.394 84.9928 355.39 85.1005Z" fill="#263238"/>
<path d="M352.06 102.43C352.056 102.538 352.031 102.644 351.986 102.742C351.941 102.84 351.878 102.928 351.799 103.001C351.72 103.075 351.627 103.132 351.526 103.169C351.425 103.207 351.318 103.224 351.21 103.22C351.103 103.218 350.997 103.194 350.899 103.15C350.801 103.106 350.713 103.043 350.639 102.965C350.566 102.887 350.509 102.795 350.471 102.695C350.433 102.594 350.416 102.487 350.42 102.38C350.423 102.272 350.447 102.165 350.491 102.065C350.535 101.966 350.599 101.877 350.678 101.802C350.757 101.728 350.85 101.67 350.952 101.632C351.053 101.594 351.161 101.576 351.27 101.58C351.487 101.591 351.691 101.685 351.838 101.844C351.986 102.003 352.065 102.213 352.06 102.43Z" fill="#263238"/>
<path d="M345.5 120.43C345.478 120.631 345.382 120.816 345.232 120.951C345.082 121.086 344.887 121.16 344.685 121.16C344.483 121.16 344.288 121.086 344.138 120.951C343.988 120.816 343.892 120.631 343.87 120.43C343.857 120.316 343.869 120.2 343.904 120.09C343.939 119.98 343.997 119.879 344.074 119.793C344.151 119.707 344.245 119.638 344.35 119.591C344.456 119.544 344.57 119.52 344.685 119.52C344.8 119.52 344.914 119.544 345.02 119.591C345.125 119.638 345.219 119.707 345.296 119.793C345.373 119.879 345.431 119.98 345.466 120.09C345.501 120.2 345.513 120.316 345.5 120.43Z" fill="#263238"/>
<path d="M345.39 137C345.388 137.108 345.363 137.215 345.319 137.314C345.275 137.412 345.211 137.501 345.132 137.575C345.053 137.648 344.959 137.705 344.858 137.742C344.756 137.779 344.648 137.796 344.54 137.79C344.378 137.784 344.221 137.73 344.09 137.635C343.959 137.54 343.858 137.408 343.802 137.257C343.746 137.105 343.735 136.939 343.773 136.781C343.81 136.624 343.894 136.481 344.012 136.37C344.131 136.26 344.28 136.187 344.44 136.161C344.6 136.136 344.764 136.158 344.912 136.225C345.059 136.293 345.183 136.402 345.268 136.54C345.354 136.678 345.396 136.838 345.39 137Z" fill="#263238"/>
<path d="M342.06 154.3C342.056 154.463 342.004 154.621 341.91 154.753C341.816 154.886 341.685 154.988 341.533 155.046C341.381 155.104 341.215 155.116 341.057 155.079C340.898 155.043 340.754 154.96 340.643 154.842C340.532 154.723 340.458 154.574 340.431 154.414C340.405 154.254 340.426 154.089 340.494 153.941C340.561 153.793 340.671 153.668 340.809 153.583C340.947 153.497 341.108 153.455 341.27 153.461C341.486 153.468 341.69 153.561 341.838 153.718C341.986 153.875 342.065 154.085 342.06 154.3Z" fill="#263238"/>
<path d="M338.73 171.6C338.722 171.819 338.629 172.025 338.469 172.175C338.31 172.325 338.098 172.406 337.88 172.4C337.772 172.396 337.666 172.371 337.568 172.326C337.47 172.282 337.382 172.218 337.309 172.139C337.235 172.06 337.178 171.967 337.141 171.866C337.103 171.765 337.086 171.658 337.09 171.55C337.093 171.443 337.118 171.337 337.162 171.238C337.206 171.14 337.269 171.052 337.348 170.978C337.426 170.904 337.519 170.846 337.619 170.808C337.72 170.77 337.827 170.752 337.935 170.755C338.043 170.759 338.149 170.783 338.247 170.827C338.345 170.871 338.434 170.935 338.508 171.013C338.581 171.092 338.639 171.184 338.677 171.285C338.715 171.385 338.733 171.493 338.73 171.6Z" fill="#263238"/>
<path d="M335.39 188.911C335.384 189.073 335.33 189.229 335.235 189.361C335.14 189.492 335.008 189.592 334.856 189.649C334.704 189.705 334.539 189.715 334.381 189.678C334.223 189.64 334.08 189.557 333.97 189.438C333.86 189.32 333.787 189.171 333.761 189.011C333.735 188.851 333.757 188.686 333.825 188.539C333.892 188.392 334.002 188.267 334.14 188.182C334.278 188.097 334.438 188.055 334.6 188.061C334.708 188.063 334.815 188.087 334.913 188.132C335.012 188.176 335.101 188.24 335.174 188.319C335.248 188.398 335.305 188.491 335.342 188.593C335.379 188.695 335.395 188.803 335.39 188.911Z" fill="#263238"/>
<path d="M344.68 120.88C344.567 120.88 344.458 120.842 344.371 120.771C344.283 120.7 344.223 120.601 344.2 120.49C344.185 120.426 344.184 120.359 344.195 120.294C344.206 120.229 344.23 120.167 344.265 120.111C344.3 120.055 344.346 120.007 344.401 119.969C344.455 119.931 344.516 119.905 344.58 119.89L347.06 119.36C347.125 119.346 347.193 119.344 347.258 119.356C347.324 119.368 347.386 119.393 347.442 119.429C347.498 119.465 347.546 119.512 347.584 119.568C347.621 119.623 347.647 119.685 347.66 119.75C347.673 119.815 347.674 119.881 347.661 119.945C347.649 120.01 347.624 120.071 347.587 120.126C347.551 120.181 347.504 120.228 347.45 120.265C347.396 120.302 347.334 120.327 347.27 120.34L344.79 120.87L344.68 120.88Z" fill="#263238"/>
<path d="M352.97 111.67C351.79 114.73 350.789 117.855 349.97 121.03C349.22 124.56 349.18 132.46 349.18 132.46" fill="#263238"/>
<path d="M349.18 132.96C349.047 132.955 348.922 132.9 348.829 132.805C348.736 132.71 348.683 132.583 348.68 132.45C348.68 132.13 348.74 124.45 349.49 120.93C350.304 117.728 351.306 114.575 352.49 111.49C352.51 111.425 352.543 111.364 352.588 111.311C352.633 111.259 352.688 111.216 352.75 111.186C352.811 111.156 352.879 111.139 352.947 111.136C353.016 111.133 353.085 111.145 353.149 111.169C353.213 111.194 353.271 111.232 353.32 111.28C353.369 111.329 353.408 111.387 353.433 111.451C353.458 111.515 353.47 111.583 353.468 111.652C353.466 111.721 353.45 111.788 353.42 111.85C352.242 114.886 351.24 117.988 350.42 121.14C349.69 124.58 349.64 132.38 349.63 132.46C349.631 132.585 349.585 132.705 349.502 132.797C349.418 132.89 349.304 132.948 349.18 132.96Z" fill="#263238"/>
<path d="M166.34 219.27C167.73 196.87 165.18 156.14 207.29 161.54C252.42 167.31 239.51 220.09 239.51 220.09L166.34 219.27Z" fill="#263238"/>
<path d="M195.4 205.81C205.551 205.81 213.78 197.581 213.78 187.43C213.78 177.279 205.551 169.05 195.4 169.05C185.249 169.05 177.02 177.279 177.02 187.43C177.02 197.581 185.249 205.81 195.4 205.81Z" fill="white"/>
<path d="M197.82 169.08C189.11 167.6 179.82 174.01 178.89 180.51L213.4 183.69C212.18 176.28 204.72 170.26 197.82 169.08Z" fill="#263238"/>
<path d="M209.47 186.97C209.22 191.78 206.6 195.55 203.62 195.39C200.64 195.23 198.42 191.22 198.62 186.39C198.82 181.56 201.49 177.81 204.47 177.97C207.45 178.13 209.71 182.17 209.47 186.97Z" fill="#263238"/>
<path d="M195.4 206.81C191.567 206.81 187.82 205.674 184.633 203.544C181.446 201.415 178.962 198.388 177.495 194.847C176.028 191.305 175.645 187.409 176.392 183.649C177.14 179.89 178.986 176.437 181.696 173.727C184.407 171.016 187.86 169.17 191.619 168.423C195.379 167.675 199.275 168.059 202.816 169.526C206.358 170.992 209.384 173.476 211.514 176.663C213.643 179.85 214.78 183.597 214.78 187.43C214.775 192.569 212.731 197.495 209.098 201.128C205.465 204.761 200.538 206.805 195.4 206.81ZM195.4 170.06C191.962 170.06 188.602 171.08 185.743 172.99C182.885 174.9 180.657 177.615 179.342 180.792C178.027 183.968 177.683 187.463 178.355 190.835C179.026 194.206 180.682 197.303 183.114 199.733C185.546 202.164 188.643 203.818 192.015 204.488C195.388 205.157 198.882 204.811 202.058 203.494C205.234 202.177 207.947 199.948 209.856 197.089C211.764 194.229 212.782 190.868 212.78 187.43C212.775 182.823 210.942 178.407 207.683 175.15C204.425 171.894 200.007 170.063 195.4 170.06Z" fill="#0AA547"/>
<path opacity="0.3" d="M234.38 218.71H234.26C234.196 218.696 234.135 218.669 234.081 218.631C234.028 218.593 233.982 218.545 233.948 218.489C233.913 218.433 233.89 218.371 233.88 218.305C233.871 218.24 233.874 218.174 233.89 218.11C233.89 217.98 237.11 204.42 233.8 190.71C233.768 190.578 233.79 190.438 233.862 190.322C233.933 190.205 234.047 190.122 234.18 190.09C234.313 190.059 234.453 190.081 234.569 190.152C234.685 190.223 234.768 190.338 234.8 190.47C238.17 204.47 234.92 218.21 234.89 218.34C234.86 218.451 234.794 218.548 234.701 218.616C234.608 218.683 234.495 218.717 234.38 218.71Z" fill="white"/>
<path opacity="0.3" d="M231.59 183.19C231.494 183.189 231.4 183.161 231.319 183.11C231.238 183.059 231.173 182.986 231.13 182.9C229.887 180.153 228.294 177.578 226.39 175.24C226.307 175.138 226.268 175.007 226.281 174.876C226.294 174.745 226.359 174.624 226.46 174.54C226.511 174.498 226.57 174.466 226.633 174.446C226.697 174.426 226.764 174.42 226.83 174.426C226.896 174.433 226.96 174.452 227.018 174.484C227.077 174.516 227.128 174.558 227.17 174.61C229.121 177.016 230.758 179.661 232.04 182.48C232.069 182.539 232.085 182.603 232.088 182.669C232.092 182.734 232.082 182.799 232.059 182.861C232.037 182.922 232.003 182.979 231.958 183.027C231.913 183.075 231.86 183.113 231.8 183.14C231.734 183.171 231.663 183.188 231.59 183.19Z" fill="white"/>
<path d="M72.62 324.35H72.25C70.9239 324.313 69.6669 323.751 68.7555 322.787C67.8441 321.823 67.3529 320.536 67.39 319.21C67.4272 317.884 67.9895 316.627 68.9535 315.716C69.9174 314.804 71.2039 314.313 72.53 314.35H72.62C75.51 314.35 82.46 310.84 97 287.92C97.386 287.311 97.899 286.793 98.5039 286.401C99.1088 286.01 99.7913 285.753 100.505 285.649C101.218 285.546 101.945 285.598 102.636 285.802C103.328 286.005 103.967 286.356 104.51 286.83C115.929 296.646 128.382 305.19 141.65 312.31C142.264 312.589 142.815 312.99 143.27 313.488C143.725 313.986 144.075 314.571 144.298 315.207C144.522 315.844 144.614 316.519 144.569 317.192C144.525 317.865 144.344 318.522 144.039 319.124C143.734 319.725 143.31 320.259 142.793 320.692C142.277 321.126 141.677 321.45 141.032 321.646C140.386 321.842 139.708 321.905 139.037 321.832C138.367 321.759 137.718 321.551 137.13 321.22C124.799 314.668 113.143 306.917 102.33 298.08C90.14 316.43 81.1 324.35 72.62 324.35Z" fill="#263238"/>
<path d="M103.56 285.93H103.13C102.344 285.816 101.636 285.395 101.16 284.76C100.683 284.124 100.479 283.326 100.59 282.54C101.3 277.54 100.42 258.91 94.1101 244.41C93.8302 243.769 93.7829 243.051 93.9765 242.379C94.17 241.707 94.5922 241.124 95.17 240.73C108.87 231.4 138.05 230.28 139.29 230.24C139.684 230.227 140.077 230.291 140.446 230.43C140.815 230.569 141.153 230.779 141.441 231.048C141.729 231.317 141.961 231.641 142.123 231.999C142.286 232.358 142.377 232.746 142.39 233.14C142.403 233.534 142.339 233.927 142.2 234.296C142.061 234.665 141.851 235.003 141.582 235.291C141.313 235.578 140.989 235.81 140.63 235.973C140.272 236.136 139.884 236.227 139.49 236.24C139.22 236.24 113.71 237.24 100.61 244.44C106.19 258.88 107.46 276.87 106.53 283.38C106.422 284.09 106.063 284.738 105.518 285.206C104.973 285.674 104.278 285.931 103.56 285.93Z" fill="#263238"/>
<path d="M108.6 282.05C106.6 277.34 97.6001 277.87 92.3301 281.91C89.5101 284.06 85.6901 290.55 85.3301 292.91C85.21 293.471 85.2279 294.052 85.3824 294.605C85.5368 295.157 85.8231 295.663 86.2166 296.081C86.6101 296.498 87.0991 296.813 87.6414 296.999C88.1838 297.186 88.7633 297.237 89.3301 297.15C92.7801 296.85 97.51 291.84 97.51 291.84C94.36 294.93 98.43 297.11 104.51 292.64C107.83 290.15 110.83 287.32 108.6 282.05Z" fill="#0AA547"/>
<path d="M280.6 220.59C280.554 220.601 280.506 220.601 280.46 220.59C280.396 220.573 280.337 220.543 280.285 220.502C280.233 220.462 280.19 220.411 280.158 220.353C280.126 220.295 280.106 220.231 280.1 220.165C280.093 220.1 280.1 220.033 280.12 219.97C281.45 215.33 282.9 212.5 284.81 210.97C284.511 209.895 284.567 208.751 284.97 207.71C285.436 206.495 286.259 205.449 287.33 204.71C287.039 204.396 286.832 204.012 286.729 203.596C286.626 203.18 286.63 202.745 286.74 202.33C287.102 201.078 287.851 199.971 288.88 199.17C288.509 198.755 288.306 198.217 288.31 197.66C288.31 194.66 293.82 190.14 300.07 189.28C300.203 189.262 300.337 189.297 300.444 189.377C300.551 189.458 300.622 189.578 300.64 189.71C300.659 189.843 300.624 189.977 300.543 190.084C300.462 190.191 300.343 190.262 300.21 190.28C294.27 191.09 289.29 195.39 289.31 197.66C289.308 197.999 289.437 198.325 289.67 198.57C291.015 197.658 292.529 197.023 294.122 196.702C295.715 196.381 297.357 196.38 298.95 196.7C302.02 197.29 303.27 197.94 303.13 198.87C302.85 200.62 296.32 200.99 291.94 200.47C291.155 200.399 290.392 200.178 289.69 199.82C288.747 200.491 288.046 201.449 287.69 202.55C287.604 202.842 287.605 203.152 287.692 203.443C287.779 203.734 287.948 203.994 288.18 204.19C290.04 203.19 292.65 202.83 296.1 203.59C300.63 204.59 300.8 205.14 300.91 205.47C300.945 205.587 300.948 205.711 300.918 205.829C300.888 205.947 300.827 206.055 300.74 206.14C299.79 207.14 292.84 206.67 289.35 205.81C288.929 205.714 288.522 205.563 288.14 205.36C287.107 205.988 286.312 206.941 285.88 208.07C285.591 208.801 285.512 209.597 285.65 210.37C285.828 210.264 286.012 210.167 286.2 210.08C288.27 209.08 290.77 209.26 293.86 210.58C295.86 211.45 296.86 212.23 296.96 213.02C296.964 213.223 296.914 213.423 296.813 213.599C296.713 213.775 296.567 213.921 296.39 214.02C294.86 215.02 289.52 214.88 286.74 213.4C286.101 213.053 285.568 212.538 285.2 211.91C283.57 213.41 282.25 216.08 281.05 220.27C281.014 220.361 280.952 220.44 280.872 220.496C280.792 220.553 280.698 220.586 280.6 220.59ZM286.02 211.26C286.299 211.778 286.723 212.202 287.24 212.48C289.5 213.68 293.94 213.95 295.6 213.28C295.94 213.14 295.99 213.03 295.99 213.03C295.99 213.03 295.94 212.47 293.49 211.42C290.69 210.22 288.49 210.05 286.66 210.9C286.439 211.007 286.226 211.127 286.02 211.26ZM289.36 204.69L289.61 204.76C292.867 205.511 296.218 205.764 299.55 205.51C298.368 205.072 297.15 204.737 295.91 204.51C293.756 203.927 291.479 203.989 289.36 204.69ZM290.62 199.07C291.082 199.236 291.562 199.343 292.05 199.39C297.05 199.98 301.44 199.29 302.05 198.66C301.88 198.51 301.21 198.08 298.73 197.61C295.939 197.054 293.041 197.575 290.62 199.07Z" fill="#263238"/>
<path d="M150.42 322.68C151.08 322.47 150.86 321.83 150.12 321.83H136.58C110.8 319.1 92.79 322.76 104.14 323.62C115.49 324.48 103.34 324.3 95.0501 327.44C86.7601 330.58 156.7 331.37 163.05 327.44C168.89 323.82 141.28 325.61 150.42 322.68Z" fill="#263238"/>
<path d="M247.36 326.67L129.56 322.76L124.67 208.54L263.78 211.65L247.36 326.67Z" fill="#0AA547"/>
<path d="M166.34 324.48C166.214 324.481 166.093 324.434 166 324.348C165.907 324.263 165.85 324.146 165.84 324.02L156.4 209.3C156.392 209.168 156.435 209.038 156.521 208.937C156.607 208.836 156.728 208.773 156.86 208.76C156.992 208.754 157.12 208.799 157.221 208.884C157.321 208.969 157.385 209.09 157.4 209.22L166.89 323.94C166.896 324.006 166.888 324.072 166.868 324.135C166.848 324.198 166.815 324.256 166.772 324.306C166.73 324.356 166.677 324.397 166.619 324.427C166.56 324.457 166.496 324.475 166.43 324.48H166.34Z" fill="#263238"/>
<path d="M247.36 326.67L279.02 321.85L288.99 215.64L263.78 211.65L247.36 326.67Z" fill="#0AA547"/>
<path opacity="0.2" d="M247.36 326.67L279.02 321.85L288.99 215.64L263.78 211.65L247.36 326.67Z" fill="black"/>
<path d="M139.62 300.75L136.72 232.88C136.648 231.203 136.922 229.53 137.523 227.963C138.124 226.396 139.04 224.969 140.214 223.77C141.388 222.571 142.796 221.626 144.35 220.993C145.905 220.36 147.572 220.053 149.25 220.09L237.31 222.09C239.044 222.129 240.75 222.535 242.315 223.282C243.881 224.029 245.27 225.099 246.392 226.422C247.514 227.745 248.342 229.29 248.823 230.957C249.303 232.623 249.425 234.373 249.18 236.09L239.42 304.43C238.998 307.423 237.485 310.155 235.173 312.102C232.861 314.049 229.911 315.074 226.89 314.98L151.5 312.48C148.405 312.384 145.461 311.122 143.257 308.947C141.054 306.771 139.755 303.843 139.62 300.75Z" fill="#263238"/>
<path d="M149.14 240.92L162.76 241.35L162.65 244.86L154.12 244.59L154.04 247.21L161.95 247.46L161.84 250.82L153.93 250.56L153.83 253.81L162.6 254.09L162.48 257.81L148.61 257.37L149.14 240.92Z" fill="white"/>
<path d="M165.29 257.9L165.81 241.45L174.29 241.72C175.506 241.714 176.716 241.889 177.88 242.24C178.705 242.517 179.411 243.067 179.88 243.8C180.228 244.334 180.461 244.934 180.567 245.562C180.673 246.191 180.648 246.834 180.494 247.452C180.34 248.07 180.061 248.65 179.673 249.156C179.285 249.661 178.797 250.081 178.24 250.39C177.672 250.683 177.061 250.885 176.43 250.99C176.895 251.14 177.336 251.355 177.74 251.63C178.032 251.901 178.293 252.203 178.52 252.53C178.778 252.841 179.005 253.176 179.2 253.53L181.51 258.38L175.77 258.19L173.21 253.08C173.007 252.592 172.708 252.15 172.33 251.78C171.971 251.521 171.543 251.374 171.1 251.36H170.65L170.44 258.03L165.29 257.9ZM170.71 248.28L172.85 248.35C173.304 248.323 173.756 248.259 174.2 248.16C174.535 248.109 174.838 247.934 175.05 247.67C175.266 247.404 175.389 247.073 175.4 246.73C175.419 246.502 175.387 246.272 175.305 246.057C175.224 245.842 175.096 245.649 174.93 245.49C174.372 245.13 173.713 244.958 173.05 245L170.81 244.93L170.71 248.28Z" fill="white"/>
<path d="M183.17 258.43L183.69 241.98L192.16 242.25C193.376 242.243 194.586 242.418 195.75 242.77C196.577 243.043 197.284 243.595 197.75 244.33C198.258 245.131 198.496 246.074 198.43 247.02C198.433 247.818 198.22 248.602 197.813 249.289C197.406 249.975 196.821 250.539 196.12 250.92C195.551 251.211 194.94 251.413 194.31 251.52C194.772 251.669 195.21 251.885 195.61 252.16C195.909 252.423 196.174 252.722 196.4 253.05C196.656 253.363 196.883 253.697 197.08 254.05L199.39 258.89L193.65 258.71L191.09 253.6C190.885 253.113 190.586 252.671 190.21 252.3C189.853 252.03 189.418 251.883 188.97 251.88H188.53L188.31 258.56L183.17 258.43ZM188.58 248.81L190.73 248.87C191.185 248.853 191.637 248.792 192.08 248.69C192.413 248.64 192.713 248.465 192.92 248.2C193.144 247.938 193.268 247.605 193.27 247.26C193.292 247.032 193.262 246.802 193.182 246.587C193.102 246.373 192.975 246.179 192.81 246.02C192.252 245.65 191.587 245.478 190.92 245.53L188.69 245.46L188.58 248.81Z" fill="white"/>
<path d="M200.21 250.79C200.133 249.642 200.311 248.491 200.731 247.42C201.152 246.349 201.804 245.385 202.642 244.596C203.479 243.807 204.481 243.214 205.575 242.858C206.669 242.503 207.829 242.394 208.97 242.54C210.122 242.502 211.269 242.695 212.345 243.109C213.42 243.523 214.401 244.149 215.23 244.95C215.97 245.802 216.528 246.795 216.872 247.869C217.216 248.944 217.338 250.077 217.23 251.2C217.238 252.834 216.854 254.445 216.11 255.9C215.436 257.09 214.428 258.056 213.21 258.68C211.775 259.366 210.187 259.669 208.6 259.56C207.018 259.573 205.453 259.232 204.02 258.56C202.8 257.898 201.805 256.889 201.16 255.66C200.404 254.154 200.075 252.47 200.21 250.79ZM205.29 250.97C205.14 252.23 205.426 253.504 206.1 254.58C206.415 254.932 206.798 255.217 207.226 255.418C207.654 255.618 208.118 255.731 208.59 255.749C209.062 255.766 209.533 255.689 209.974 255.521C210.416 255.353 210.819 255.097 211.16 254.77C211.901 253.647 212.253 252.312 212.16 250.97C212.294 249.765 212 248.55 211.33 247.54C211.027 247.19 210.652 246.91 210.231 246.719C209.81 246.527 209.353 246.429 208.89 246.43C208.423 246.396 207.955 246.469 207.52 246.642C207.086 246.815 206.696 247.085 206.38 247.43C205.623 248.451 205.238 249.7 205.29 250.97Z" fill="white"/>
<path d="M219.8 259.64L220.32 243.18L228.79 243.45C230.006 243.448 231.215 243.623 232.38 243.97C233.203 244.251 233.908 244.8 234.38 245.53C234.885 246.333 235.123 247.274 235.06 248.22C235.065 249.02 234.852 249.806 234.446 250.495C234.039 251.183 233.453 251.748 232.75 252.13C232.178 252.413 231.569 252.612 230.94 252.72C231.403 252.872 231.841 253.091 232.24 253.37C232.539 253.633 232.804 253.932 233.03 254.26C233.288 254.571 233.515 254.906 233.71 255.26L236.02 260.11L230.28 259.93L227.72 254.81C227.516 254.325 227.217 253.887 226.84 253.52C226.481 253.252 226.048 253.101 225.6 253.09H225.16L224.94 259.77L219.8 259.64ZM225.21 250.01L227.36 250.08C227.815 250.063 228.267 250.003 228.71 249.9C229.041 249.847 229.341 249.672 229.55 249.41C229.786 249.131 229.911 248.775 229.9 248.41C229.922 248.184 229.891 247.955 229.812 247.742C229.732 247.529 229.605 247.337 229.44 247.18C228.882 246.811 228.217 246.638 227.55 246.69L225.32 246.62L225.21 250.01Z" fill="white"/>
<path d="M227.89 287.59C227.702 287.593 227.516 287.557 227.344 287.483C227.171 287.409 227.017 287.299 226.89 287.16L218.33 277.79L209.09 286.23C208.834 286.464 208.495 286.588 208.148 286.573C207.802 286.558 207.475 286.406 207.24 286.15L198.68 276.78L189.44 285.22C189.184 285.454 188.845 285.578 188.498 285.563C188.152 285.548 187.825 285.396 187.59 285.14L179.02 275.77L169.79 284.21C169.655 284.332 169.497 284.425 169.325 284.483C169.153 284.542 168.971 284.565 168.79 284.55C168.443 284.529 168.117 284.375 167.88 284.12L159.32 274.76L150.09 283.19C149.832 283.425 149.492 283.549 149.143 283.534C148.795 283.519 148.467 283.366 148.23 283.11C148.113 282.983 148.023 282.834 147.964 282.672C147.905 282.51 147.879 282.338 147.888 282.166C147.896 281.994 147.939 281.825 148.013 281.67C148.087 281.514 148.191 281.375 148.32 281.26L158.52 271.93C158.778 271.695 159.118 271.571 159.466 271.586C159.815 271.601 160.143 271.754 160.38 272.01L168.94 281.38L178.17 272.94C178.432 272.71 178.772 272.588 179.12 272.6C179.468 272.619 179.795 272.773 180.03 273.03L188.59 282.4L197.83 273.96C197.956 273.843 198.104 273.751 198.266 273.692C198.428 273.632 198.6 273.605 198.772 273.613C198.944 273.62 199.113 273.662 199.269 273.735C199.425 273.809 199.564 273.912 199.68 274.04L208.24 283.41L217.48 274.97C217.736 274.735 218.075 274.612 218.422 274.627C218.768 274.642 219.095 274.794 219.33 275.05L228.89 285.43C229.061 285.621 229.172 285.857 229.211 286.111C229.25 286.364 229.214 286.623 229.108 286.856C229.002 287.09 228.83 287.287 228.614 287.424C228.398 287.562 228.146 287.633 227.89 287.63V287.59Z" fill="white"/>
<path d="M69.64 329.1L63.38 326.11L57.8 298.94L60.83 295.61L69.64 329.1Z" fill="#0AA547"/>
<path d="M69.6401 329.1L77.9501 324.24L70.8301 301.86L60.8301 295.61L69.6401 329.1Z" fill="#0AA547"/>
<path opacity="0.2" d="M69.6401 329.1L77.9501 324.24L70.8301 301.86L60.8301 295.61L69.6401 329.1Z" fill="black"/>
<path d="M205.89 334.04H205.2C203.874 334.004 202.616 333.443 201.704 332.48C200.792 331.517 200.299 330.231 200.335 328.905C200.371 327.579 200.932 326.321 201.895 325.409C202.858 324.497 204.144 324.004 205.47 324.04C213.17 324.29 229.47 319.56 238.79 310.52C239.353 309.968 240.038 309.557 240.79 309.32C256.58 304.58 262.45 314.15 262.69 314.56L254.09 319.65C254.12 319.714 254.157 319.774 254.2 319.83C254.11 319.7 251.87 316.83 244.75 318.59C233.06 329.25 215.12 334.04 205.89 334.04Z" fill="#263238"/>
<path d="M205.28 340.68L187.07 339.54L185.64 305.96L210.11 306.87L205.28 340.68Z" fill="#0AA547"/>
<path d="M205.28 340.68L209.54 336.44L212.18 315.51L210.11 306.87L205.28 340.68Z" fill="#0AA547"/>
<path opacity="0.2" d="M205.28 340.68L209.54 336.44L212.18 315.51L210.11 306.87L205.28 340.68Z" fill="black"/>
<path d="M310.8 327.97C310.146 327.969 309.511 327.755 308.99 327.36C298.59 319.46 284.54 305.43 279.15 291.9C279.069 291.704 279.012 291.5 278.98 291.29C276.35 275.65 273.84 242.74 273.73 241.35C273.701 240.956 273.749 240.56 273.872 240.185C273.996 239.81 274.192 239.462 274.45 239.163C274.97 238.558 275.709 238.185 276.505 238.125C277.301 238.065 278.088 238.324 278.692 238.845C279.297 239.365 279.67 240.104 279.73 240.9C279.73 241.23 282.3 274.46 284.86 289.97C290.24 303.13 304.86 316.64 312.64 322.58C313.141 322.96 313.51 323.488 313.695 324.089C313.879 324.69 313.87 325.334 313.669 325.93C313.468 326.526 313.085 327.043 312.574 327.409C312.062 327.775 311.449 327.972 310.82 327.97H310.8Z" fill="#263238"/>
<path d="M324.67 329.48C322.35 329.48 319.72 328.43 316.85 326.36C316.206 325.893 315.773 325.19 315.647 324.404C315.522 323.618 315.713 322.815 316.18 322.17C316.647 321.526 317.351 321.093 318.136 320.967C318.922 320.842 319.726 321.033 320.37 321.5C322.85 323.29 324.2 323.5 324.67 323.5C325.466 323.5 326.229 323.816 326.791 324.379C327.354 324.941 327.67 325.704 327.67 326.5C327.67 327.296 327.354 328.059 326.791 328.621C326.229 329.184 325.466 329.5 324.67 329.5V329.48Z" fill="#263238"/>
<path d="M317.69 326.27C320.9 316.74 334.06 318.62 338.6 320.04C342.478 321.166 346.198 322.779 349.67 324.84C352.12 326.44 352.16 329.13 348.89 330.66C344.89 332.54 334.73 330.87 334.73 330.87C339.97 333.16 334.73 336.87 325.52 333.23C322.53 332.05 316.56 329.77 317.69 326.27Z" fill="#0AA547"/>
<path d="M285.75 245.43C284.56 253.53 277.85 259.5 272.39 258.7C266.93 257.9 266.71 250.7 267.9 242.56C269.09 234.42 271.25 228.56 276.71 229.36C282.17 230.16 286.94 237.36 285.75 245.43Z" fill="#263238"/>
<path d="M153.77 213.13C154.223 213.13 154.59 212.763 154.59 212.31C154.59 211.857 154.223 211.49 153.77 211.49C153.317 211.49 152.95 211.857 152.95 212.31C152.95 212.763 153.317 213.13 153.77 213.13Z" fill="#263238"/>
<path d="M162.1 218.21C162.1 218.372 162.052 218.531 161.962 218.666C161.872 218.801 161.744 218.906 161.594 218.968C161.444 219.03 161.279 219.046 161.12 219.014C160.961 218.983 160.815 218.905 160.7 218.79C160.586 218.675 160.507 218.529 160.476 218.37C160.444 218.211 160.46 218.046 160.523 217.896C160.585 217.746 160.69 217.618 160.825 217.528C160.959 217.438 161.118 217.39 161.28 217.39C161.498 217.39 161.706 217.477 161.86 217.63C162.014 217.784 162.1 217.993 162.1 218.21Z" fill="#263238"/>
<path d="M163.02 315.11C163.02 315.272 162.972 315.431 162.882 315.566C162.792 315.7 162.664 315.806 162.514 315.868C162.364 315.93 162.199 315.946 162.04 315.914C161.881 315.883 161.735 315.805 161.62 315.69C161.506 315.575 161.427 315.429 161.396 315.27C161.364 315.111 161.38 314.946 161.442 314.796C161.504 314.646 161.61 314.518 161.744 314.428C161.879 314.338 162.038 314.29 162.2 314.29C162.417 314.29 162.626 314.376 162.78 314.53C162.934 314.684 163.02 314.893 163.02 315.11Z" fill="#263238"/>
<path d="M170.53 321.02C170.53 321.182 170.482 321.341 170.392 321.476C170.302 321.611 170.174 321.716 170.024 321.778C169.874 321.84 169.709 321.856 169.55 321.824C169.391 321.793 169.245 321.715 169.13 321.6C169.016 321.485 168.937 321.339 168.906 321.18C168.874 321.021 168.89 320.856 168.952 320.706C169.014 320.557 169.12 320.429 169.254 320.338C169.389 320.248 169.548 320.2 169.71 320.2C169.927 320.2 170.136 320.287 170.29 320.44C170.444 320.594 170.53 320.803 170.53 321.02Z" fill="#263238"/>
<path d="M26.4 330.85C24.9604 330.783 23.5543 330.393 22.2855 329.71C21.0168 329.026 19.9179 328.066 19.07 326.9C19.0285 326.847 18.9982 326.785 18.9812 326.72C18.9642 326.654 18.9607 326.585 18.971 326.518C18.9812 326.451 19.0051 326.387 19.041 326.329C19.0769 326.272 19.1241 326.222 19.1798 326.183C19.2355 326.145 19.2985 326.118 19.365 326.104C19.4315 326.091 19.5 326.091 19.5665 326.104C19.6329 326.118 19.6959 326.145 19.7515 326.184C19.8071 326.223 19.8543 326.273 19.89 326.33C21.76 329.03 25.89 330.46 27.69 329.61C27.8703 329.534 28.031 329.418 28.16 329.27C27.2505 328.87 26.4536 328.252 25.8397 327.471C25.2257 326.689 24.8137 325.769 24.64 324.79C24.41 323.52 24.23 321.79 25.27 321.57C26.71 321.25 28.59 324.72 29.27 327.35C29.3932 327.786 29.4372 328.24 29.4 328.69C29.9768 328.862 30.5835 328.91 31.18 328.83C31.4489 328.81 31.7104 328.733 31.948 328.606C32.1856 328.478 32.3941 328.303 32.56 328.09C31.9019 327.594 31.356 326.964 30.9579 326.242C30.5599 325.52 30.3187 324.722 30.25 323.9C29.87 321.16 30.16 320.69 30.46 320.45C30.5572 320.376 30.6732 320.33 30.7951 320.317C30.917 320.305 31.0399 320.327 31.15 320.38C32.22 320.83 33.51 324.71 33.76 326.91C33.79 327.139 33.79 327.371 33.76 327.6C34.1912 327.766 34.6482 327.854 35.11 327.86C35.958 327.893 36.7967 327.674 37.52 327.23C37.38 327.14 37.25 327.04 37.12 326.94C36.12 326.05 35.66 324.63 35.84 322.61C35.98 321.04 36.33 320.18 36.96 319.91C37.1633 319.829 37.3859 319.808 37.6007 319.851C37.8155 319.893 38.0133 319.997 38.17 320.15C38.8451 320.896 39.3495 321.779 39.6483 322.74C39.9471 323.7 40.033 324.714 39.9 325.71C39.8132 326.125 39.6394 326.517 39.39 326.86C41.23 327.18 43.81 326.66 46.04 326.11C46.1057 326.095 46.1738 326.092 46.2405 326.103C46.3072 326.113 46.3712 326.137 46.4287 326.172C46.4863 326.207 46.5364 326.254 46.5761 326.308C46.6157 326.363 46.6443 326.425 46.66 326.49C46.6758 326.556 46.6785 326.624 46.6679 326.691C46.6573 326.758 46.6337 326.821 46.5984 326.879C46.5632 326.937 46.5169 326.987 46.4622 327.026C46.4076 327.066 46.3457 327.095 46.28 327.11C43.57 327.78 40.65 328.33 38.59 327.73C37.5845 328.495 36.3531 328.903 35.09 328.89C34.5295 328.883 33.9746 328.778 33.45 328.58C33.2174 328.94 32.9053 329.242 32.5377 329.462C32.1702 329.682 31.757 329.815 31.33 329.85C30.5784 329.947 29.8147 329.882 29.09 329.66C28.8567 330.053 28.5074 330.364 28.09 330.55C27.5537 330.767 26.9781 330.869 26.4 330.85ZM25.54 322.57C25.4017 323.25 25.4292 323.953 25.62 324.62C25.7611 325.42 26.0929 326.174 26.5873 326.818C27.0817 327.462 27.7241 327.977 28.46 328.32C28.4461 328.083 28.4058 327.849 28.34 327.62C27.56 324.76 26.06 322.79 25.54 322.57ZM31.11 321.7C31.1166 322.39 31.1734 323.079 31.28 323.76C31.3903 324.98 31.9288 326.12 32.8 326.98C32.554 325.134 31.9817 323.346 31.11 321.7ZM37.4 320.83C37.4 320.83 37.02 321.02 36.88 322.69C36.74 324.36 37.03 325.51 37.81 326.18C37.9946 326.33 38.196 326.457 38.41 326.56C38.673 326.279 38.859 325.935 38.95 325.56C39.1282 323.986 38.7029 322.403 37.76 321.13C37.55 320.87 37.43 320.83 37.4 320.83Z" fill="#263238"/>
<path d="M172.76 338.41L175.47 333.71L172.76 329.01H169.86L171.5 333.71L169.86 338.41H172.76Z" fill="#263238"/>
<path d="M170.05 336.161C169.716 336.182 169.381 336.135 169.065 336.021C168.75 335.908 168.462 335.732 168.217 335.502C167.973 335.273 167.778 334.997 167.645 334.689C167.512 334.382 167.444 334.05 167.444 333.716C167.444 333.381 167.512 333.049 167.645 332.742C167.778 332.435 167.973 332.158 168.217 331.929C168.462 331.7 168.75 331.523 169.065 331.41C169.381 331.297 169.716 331.249 170.05 331.271L165.45 330.351L164.22 334.071L166.28 337.211L170.05 336.161Z" fill="#263238"/>
<path d="M170.45 329.01H165.02L162.31 333.71L165.02 338.41H170.45L173.16 333.71L170.45 329.01ZM167.74 336.16C167.255 336.162 166.78 336.02 166.376 335.752C165.972 335.484 165.656 335.102 165.469 334.655C165.282 334.207 165.233 333.714 165.326 333.238C165.419 332.763 165.652 332.325 165.994 331.981C166.336 331.638 166.773 331.403 167.248 331.308C167.724 331.213 168.217 331.261 168.665 331.446C169.114 331.631 169.497 331.945 169.766 332.348C170.036 332.751 170.18 333.225 170.18 333.71C170.18 334.358 169.923 334.98 169.466 335.439C169.009 335.898 168.388 336.158 167.74 336.16Z" fill="#0AA547"/>
<path d="M361.78 328.69L359.77 325.2L361.78 321.71H363.93L362.72 325.2L363.93 328.69H361.78Z" fill="#0AA547"/>
<path d="M363.79 327.02C364.04 327.039 364.291 327.006 364.527 326.923C364.763 326.84 364.98 326.71 365.163 326.539C365.347 326.369 365.493 326.162 365.593 325.933C365.693 325.703 365.745 325.456 365.745 325.205C365.745 324.955 365.693 324.707 365.593 324.478C365.493 324.248 365.347 324.042 365.163 323.872C364.98 323.701 364.763 323.571 364.527 323.488C364.291 323.405 364.04 323.372 363.79 323.39L367.21 322.71L368.12 325.47L366.6 327.8L363.79 327.02Z" fill="#0AA547"/>
<path d="M363.5 321.71H367.5L369.5 325.2L367.5 328.69H363.5L361.5 325.2L363.5 321.71ZM365.5 327.02C365.86 327.022 366.213 326.917 366.514 326.719C366.814 326.52 367.049 326.236 367.189 325.904C367.328 325.572 367.365 325.205 367.296 324.852C367.227 324.498 367.055 324.173 366.8 323.917C366.546 323.662 366.222 323.487 365.869 323.416C365.515 323.345 365.149 323.381 364.816 323.518C364.483 323.656 364.198 323.889 363.997 324.188C363.797 324.488 363.69 324.84 363.69 325.2C363.689 325.44 363.735 325.677 363.826 325.898C363.917 326.12 364.051 326.321 364.22 326.49C364.389 326.66 364.591 326.794 364.812 326.885C365.033 326.976 365.271 327.022 365.51 327.02H365.5Z" fill="#263238"/>
<path d="M286.89 333.33H291.41C291.976 333.328 292.518 333.101 292.917 332.7C293.316 332.299 293.54 331.756 293.54 331.19C293.54 330.624 293.316 330.082 292.917 329.681C292.518 329.28 291.976 329.053 291.41 329.05H286.89C286.322 329.05 285.778 329.276 285.377 329.677C284.975 330.078 284.75 330.623 284.75 331.19C284.75 331.758 284.975 332.302 285.377 332.703C285.778 333.105 286.322 333.33 286.89 333.33Z" fill="#263238"/>
<path d="M279.62 329.29C280.04 328.527 280.673 327.904 281.443 327.497C282.212 327.09 283.084 326.917 283.951 326.999C284.817 327.082 285.641 327.416 286.32 327.961C286.999 328.506 287.504 329.237 287.772 330.066C288.04 330.894 288.059 331.783 287.828 332.622C287.598 333.462 287.126 334.215 286.472 334.79C285.818 335.364 285.01 335.735 284.148 335.856C283.286 335.977 282.407 335.843 281.62 335.47C280.539 334.913 279.721 333.95 279.347 332.792C278.972 331.635 279.07 330.376 279.62 329.29Z" fill="#0AA547"/>
<path d="M280.84 335.469L282.079 336.053L286.386 326.917L285.146 326.333L280.84 335.469Z" fill="#263238"/>
</svg>
