<svg width="2501" height="556" viewBox="0 0 2501 556" fill="none" xmlns="http://www.w3.org/2000/svg">
<path d="M795.8 555.8H581.1L693.6 202.1H908.4L795.8 555.8ZM940.4 101.1C931.7 128.8 901.7 151.5 873.9 151.5H760.2C732.4 151.5 716.9 128.7 725.8 101.1L741.8 50.6C750.7 22.8 780.6 0 808.4 0H922.1C949.9 0 965.4 22.8 956.5 50.6L940.4 101.1ZM1288.5 0L1216.5 226.2C1220.7 213 1213.4 202.2 1200.1 202.2H1009.5C981.6 202.2 951.7 224.9 942.8 252.7L862.4 505.4C853.5 533.2 869 555.9 896.9 555.9H1326.4L1503.2 0L1288.5 0ZM1127.3 506.5C1123.1 519.8 1108.8 530.5 1095.5 530.5H1093.2C1080 530.5 1072.6 519.7 1076.8 506.5L1158 251.5C1162.2 238.3 1176.5 227.4 1189.8 227.4H1192.1C1205.3 227.4 1212.7 238.2 1208.5 251.5L1127.3 506.5ZM1909.1 391.6L1953.3 252.7C1962.2 224.9 1946.7 202.2 1918.9 202.2H1539.9C1512.1 202.2 1482.2 224.9 1473.3 252.7L1393 505.3C1384.1 533.1 1399.5 555.8 1427.3 555.8H1856.9L1864.9 530.5H1650.2C1622.4 530.5 1606.9 507.8 1615.7 480L1643.9 391.5L1909.1 391.6ZM1688.4 251.4C1692.6 238.2 1706.9 227.3 1720.2 227.3H1722.6C1735.9 227.3 1743.2 238.2 1739 251.4L1702.4 366.3H1651.9L1688.4 251.4ZM2277.2 227.4H2492L2500.1 202.1H2070.6C2042.8 202.1 2012.8 224.9 2003.9 252.6L1923.6 505.2C1914.7 533.1 1930.3 555.8 1958.1 555.8H2387.5L2395.6 530.5H2180.9C2153.1 530.5 2137.6 507.8 2146.5 480L2210.9 277.9C2219.4 250.1 2249.4 227.4 2277.2 227.4ZM682.1 0L569.6 353.7L353.7 0H176.8L0 555.8H25.3L137.8 202.1L353.7 555.8H530.5L707.4 0L682.1 0Z" fill="#0AA547"/>
</svg>
