<svg width="100" height="100" viewBox="0 0 100 100" fill="none" xmlns="http://www.w3.org/2000/svg">
<rect width="100" height="100" rx="18.75" fill="#0AA547"/>
<path d="M74.2452 16.335L65.351 42.2233L50 16.335H34.6403L19.2893 65.066H25.7547L34.8467 36.132L50 65.066H65.351L80.7107 16.335H74.2452Z" fill="white"/>
<path d="M18.5624 81.665V73.4924H22.0299C22.5125 73.4924 22.9484 73.6091 23.3376 73.8426C23.7345 74.0684 24.0459 74.3797 24.2716 74.7767C24.5051 75.1736 24.6218 75.6212 24.6218 76.1193C24.6218 76.6252 24.5051 77.0805 24.2716 77.4853C24.0459 77.89 23.7345 78.213 23.3376 78.4543C22.9484 78.6878 22.5125 78.8046 22.0299 78.8046H20.3137V81.665H18.5624ZM20.2904 77.2284H21.8315C22.0183 77.2284 22.1856 77.1817 22.3335 77.0883C22.4814 76.9871 22.5981 76.8548 22.6838 76.6914C22.7772 76.5279 22.8239 76.3411 22.8239 76.131C22.8239 75.9208 22.7772 75.7379 22.6838 75.5822C22.5981 75.4188 22.4814 75.2943 22.3335 75.2086C22.1856 75.1152 22.0183 75.0685 21.8315 75.0685H20.2904V77.2284ZM25.9565 81.665V75.4888H27.556L27.6144 77.4736L27.3342 77.065C27.4276 76.7459 27.5794 76.4579 27.7895 76.201C27.9997 75.9364 28.2449 75.7301 28.5251 75.5822C28.813 75.4344 29.1127 75.3604 29.424 75.3604C29.5564 75.3604 29.6848 75.3721 29.8093 75.3954C29.9339 75.4188 30.0389 75.446 30.1246 75.4772L29.6809 77.2985C29.5875 77.2518 29.4746 77.2129 29.3423 77.1817C29.21 77.1428 29.0738 77.1234 28.9337 77.1234C28.7469 77.1234 28.5718 77.1584 28.4083 77.2284C28.2526 77.2907 28.1164 77.3841 27.9997 77.5086C27.8829 77.6254 27.7895 77.7655 27.7195 77.9289C27.6572 78.0924 27.6261 78.2714 27.6261 78.466V81.665H25.9565ZM33.6856 81.7817C33.0552 81.7817 32.4909 81.6455 31.9928 81.3731C31.5024 81.0929 31.1132 80.7115 30.8252 80.2289C30.545 79.7464 30.4049 79.1937 30.4049 78.5711C30.4049 77.9484 30.545 77.3997 30.8252 76.9249C31.1132 76.4423 31.5024 76.0609 31.9928 75.7807C32.4909 75.5005 33.0552 75.3604 33.6856 75.3604C34.3083 75.3604 34.8648 75.5005 35.3552 75.7807C35.8533 76.0609 36.2425 76.4423 36.5227 76.9249C36.8029 77.3997 36.943 77.9484 36.943 78.5711C36.943 79.1937 36.8029 79.7464 36.5227 80.2289C36.2425 80.7115 35.8533 81.0929 35.3552 81.3731C34.8648 81.6455 34.3083 81.7817 33.6856 81.7817ZM33.6856 80.334C33.9892 80.334 34.2616 80.2601 34.5029 80.1122C34.7442 79.9565 34.931 79.7464 35.0633 79.4817C35.2034 79.2093 35.2735 78.9058 35.2735 78.5711C35.2735 78.2286 35.2034 77.925 35.0633 77.6604C34.931 77.388 34.7442 77.1778 34.5029 77.03C34.2616 76.8743 33.9892 76.7965 33.6856 76.7965C33.3743 76.7965 33.098 76.8743 32.8567 77.03C32.6154 77.1856 32.4247 77.3958 32.2846 77.6604C32.1445 77.925 32.0784 78.2286 32.0862 78.5711C32.0784 78.9058 32.1445 79.2093 32.2846 79.4817C32.4247 79.7464 32.6154 79.9565 32.8567 80.1122C33.098 80.2601 33.3743 80.334 33.6856 80.334ZM40.6071 81.7817C40.07 81.7817 39.5875 81.6455 39.1594 81.3731C38.7313 81.0929 38.3927 80.7154 38.1436 80.2406C37.9023 79.758 37.7817 79.2015 37.7817 78.5711C37.7817 77.9562 37.9023 77.4074 38.1436 76.9249C38.3927 76.4423 38.7274 76.0609 39.1477 75.7807C39.5758 75.5005 40.0622 75.3604 40.6071 75.3604C40.8951 75.3604 41.1714 75.4071 41.436 75.5005C41.7084 75.5861 41.9497 75.7068 42.1599 75.8624C42.3778 76.0181 42.5529 76.1932 42.6853 76.3878C42.8176 76.5746 42.8915 76.7731 42.9071 76.9833L42.4868 77.0533V73.0254H44.1446V81.665H42.5802L42.5101 80.2406L42.837 80.2756C42.8215 80.4702 42.7514 80.657 42.6269 80.836C42.5023 81.0151 42.335 81.1785 42.1248 81.3264C41.9225 81.4665 41.689 81.5794 41.4243 81.665C41.1675 81.7428 40.8951 81.7817 40.6071 81.7817ZM40.9807 80.4041C41.292 80.4041 41.5644 80.3262 41.7979 80.1706C42.0314 80.0149 42.2144 79.8008 42.3467 79.5284C42.479 79.256 42.5452 78.9369 42.5452 78.5711C42.5452 78.213 42.479 77.8978 42.3467 77.6254C42.2144 77.3452 42.0314 77.1311 41.7979 76.9833C41.5644 76.8276 41.292 76.7497 40.9807 76.7497C40.6693 76.7497 40.3969 76.8276 40.1634 76.9833C39.9377 77.1311 39.7587 77.3452 39.6264 77.6254C39.5018 77.8978 39.4396 78.213 39.4396 78.5711C39.4396 78.9369 39.5018 79.256 39.6264 79.5284C39.7587 79.8008 39.9377 80.0149 40.1634 80.1706C40.3969 80.3262 40.6693 80.4041 40.9807 80.4041ZM48.0682 81.7817C47.6168 81.7817 47.2276 81.6844 46.9007 81.4899C46.5816 81.2875 46.3325 81.0034 46.1535 80.6376C45.9823 80.264 45.8966 79.8164 45.8966 79.2949V75.4888H47.5545V79.0264C47.5545 79.3066 47.6012 79.5518 47.6946 79.7619C47.788 79.9643 47.9203 80.12 48.0916 80.2289C48.2628 80.3379 48.473 80.3924 48.722 80.3924C48.901 80.3924 49.0684 80.3651 49.2241 80.3107C49.3797 80.2484 49.512 80.1628 49.621 80.0538C49.73 79.9448 49.8156 79.8164 49.8779 79.6685C49.9401 79.5206 49.9713 79.3611 49.9713 79.1899V75.4888H51.6291V81.665H50.053L49.9946 80.3924L50.2982 80.2523C50.2048 80.5403 50.0491 80.801 49.8312 81.0345C49.6132 81.268 49.3525 81.4509 49.0489 81.5833C48.7454 81.7156 48.4185 81.7817 48.0682 81.7817ZM55.9826 81.7817C55.391 81.7817 54.8618 81.6416 54.3948 81.3614C53.9278 81.0812 53.5581 80.6998 53.2856 80.2173C53.021 79.7347 52.8887 79.186 52.8887 78.5711C52.8887 77.964 53.021 77.4191 53.2856 76.9366C53.5581 76.4462 53.9278 76.0609 54.3948 75.7807C54.8618 75.5005 55.391 75.3604 55.9826 75.3604C56.5352 75.3604 57.0411 75.4616 57.5004 75.664C57.9596 75.8663 58.3176 76.1465 58.5745 76.5046L57.6638 77.602C57.5548 77.4541 57.4186 77.3218 57.2552 77.2051C57.0917 77.0805 56.9127 76.9833 56.7181 76.9132C56.5313 76.8432 56.3367 76.8081 56.1344 76.8081C55.8152 76.8081 55.5311 76.886 55.2821 77.0416C55.0408 77.1895 54.8501 77.3958 54.71 77.6604C54.5699 77.925 54.4998 78.2286 54.4998 78.5711C54.4998 78.9058 54.5699 79.2054 54.71 79.4701C54.8579 79.7269 55.0564 79.9371 55.3054 80.1005C55.5545 80.2562 55.8347 80.334 56.146 80.334C56.3484 80.334 56.5391 80.3068 56.7181 80.2523C56.8971 80.19 57.0645 80.1005 57.2201 79.9838C57.3836 79.867 57.5315 79.7269 57.6638 79.5635L58.5628 80.6609C58.2982 80.9956 57.9323 81.268 57.4653 81.4782C56.9983 81.6805 56.5041 81.7817 55.9826 81.7817ZM60.2206 81.665V73.9244H61.8784V81.665H60.2206ZM59.0647 76.9716V75.4888H63.1393V76.9716H59.0647ZM64.36 81.665V75.4888H66.0179V81.665H64.36ZM65.1773 74.2162C64.8582 74.2162 64.6091 74.1384 64.4301 73.9827C64.2511 73.8271 64.1616 73.6052 64.1616 73.3173C64.1616 73.0526 64.2511 72.8386 64.4301 72.6751C64.6169 72.5039 64.866 72.4183 65.1773 72.4183C65.4964 72.4183 65.7455 72.5 65.9245 72.6635C66.1035 72.8191 66.193 73.0371 66.193 73.3173C66.193 73.5897 66.0996 73.8076 65.9128 73.9711C65.7338 74.1345 65.4886 74.2162 65.1773 74.2162ZM70.6607 81.7817C70.0302 81.7817 69.4659 81.6455 68.9678 81.3731C68.4774 81.0929 68.0883 80.7115 67.8003 80.2289C67.5201 79.7464 67.38 79.1937 67.38 78.5711C67.38 77.9484 67.5201 77.3997 67.8003 76.9249C68.0883 76.4423 68.4774 76.0609 68.9678 75.7807C69.4659 75.5005 70.0302 75.3604 70.6607 75.3604C71.2834 75.3604 71.8399 75.5005 72.3302 75.7807C72.8284 76.0609 73.2175 76.4423 73.4977 76.9249C73.7779 77.3997 73.918 77.9484 73.918 78.5711C73.918 79.1937 73.7779 79.7464 73.4977 80.2289C73.2175 80.7115 72.8284 81.0929 72.3302 81.3731C71.8399 81.6455 71.2834 81.7817 70.6607 81.7817ZM70.6607 80.334C70.9642 80.334 71.2367 80.2601 71.4779 80.1122C71.7192 79.9565 71.906 79.7464 72.0383 79.4817C72.1784 79.2093 72.2485 78.9058 72.2485 78.5711C72.2485 78.2286 72.1784 77.925 72.0383 77.6604C71.906 77.388 71.7192 77.1778 71.4779 77.03C71.2367 76.8743 70.9642 76.7965 70.6607 76.7965C70.3493 76.7965 70.073 76.8743 69.8317 77.03C69.5905 77.1856 69.3998 77.3958 69.2597 77.6604C69.1196 77.925 69.0534 78.2286 69.0612 78.5711C69.0534 78.9058 69.1196 79.2093 69.2597 79.4817C69.3998 79.7464 69.5905 79.9565 69.8317 80.1122C70.073 80.2601 70.3493 80.334 70.6607 80.334ZM75.1654 81.665V75.4888H76.7532L76.7999 76.7497L76.473 76.8899C76.5586 76.6096 76.7104 76.3567 76.9283 76.131C77.154 75.8975 77.4226 75.7107 77.7339 75.5706C78.0452 75.4305 78.3721 75.3604 78.7146 75.3604C79.1816 75.3604 79.5708 75.4538 79.8821 75.6406C80.2012 75.8274 80.4386 76.1115 80.5943 76.4929C80.7577 76.8665 80.8395 77.3296 80.8395 77.8822V81.665H79.1816V78.0107C79.1816 77.7305 79.1427 77.497 79.0649 77.3102C78.987 77.1234 78.8664 76.9871 78.7029 76.9015C78.5473 76.8081 78.3527 76.7692 78.1192 76.7848C77.9324 76.7848 77.7572 76.8159 77.5938 76.8782C77.4381 76.9327 77.3019 77.0144 77.1852 77.1234C77.0762 77.2323 76.9867 77.3569 76.9166 77.497C76.8544 77.6371 76.8232 77.7888 76.8232 77.9523V81.665H76.006C75.827 81.665 75.6674 81.665 75.5273 81.665C75.3872 81.665 75.2665 81.665 75.1654 81.665Z" fill="white"/>
</svg>
